<?xml version="1.0" standalone="no"?>
<!DOCTYPE svg PUBLIC "-//W3C//DTD SVG 20010904//EN"
 "http://www.w3.org/TR/2001/REC-SVG-20010904/DTD/svg10.dtd">
<svg version="1.0" xmlns="http://www.w3.org/2000/svg"
 width="700.000000pt" height="700.000000pt" viewBox="0 0 700.000000 700.000000"
 preserveAspectRatio="xMidYMid meet">
<metadata>
Created by potrace 1.11, written by Peter Selinger 2001-2013
</metadata>
<g transform="translate(0.000000,700.000000) scale(0.100000,-0.100000)"
fill="#000000" stroke="none">
<path d="M3418 5735 c-2 -1 -34 -5 -73 -9 -199 -16 -395 -71 -580 -160 -247
-121 -419 -285 -520 -499 -70 -146 -90 -247 -90 -452 0 -160 6 -204 41 -318
88 -283 315 -532 621 -682 105 -51 110 -54 191 -85 52 -20 251 -75 307 -85 17
-2 41 -7 55 -10 13 -2 88 -14 165 -26 338 -50 533 -115 700 -234 64 -46 169
-150 201 -200 10 -16 21 -32 24 -35 10 -8 77 -152 90 -192 6 -21 13 -52 15
-69 3 -17 7 -40 11 -51 6 -21 7 -190 0 -244 -13 -109 -57 -228 -122 -324 -51
-76 -164 -189 -216 -216 -18 -9 -35 -20 -38 -24 -13 -18 -173 -85 -254 -105
-148 -37 -211 -44 -416 -40 -217 3 -244 6 -381 40 -287 71 -520 226 -665 441
-30 45 -54 84 -54 88 0 18 -70 79 -116 102 -85 41 -183 23 -253 -46 -63 -64
-69 -127 -19 -229 192 -399 635 -704 1138 -785 19 -4 46 -8 60 -11 127 -25
478 -25 620 0 14 2 41 7 60 9 51 8 184 44 264 72 244 85 464 237 596 413 123
163 208 386 227 595 39 438 -92 797 -381 1041 -32 28 -63 55 -70 60 -22 21
-143 93 -211 128 -191 95 -473 173 -770 212 -91 11 -318 67 -419 102 -383 133
-576 367 -576 697 0 317 194 555 540 660 47 14 103 28 125 32 22 3 42 7 45 9
10 6 193 18 265 17 57 0 204 -11 225 -17 3 -1 25 -5 50 -10 25 -5 47 -9 50
-10 100 -22 247 -90 336 -156 80 -59 221 -203 269 -275 22 -32 51 -70 64 -83
78 -75 222 -82 294 -14 39 38 58 76 64 134 7 64 -31 145 -117 254 -253 320
-605 523 -1005 580 -49 7 -361 16 -367 10z"/>
</g>
</svg>
